<svg xmlns="http://www.w3.org/2000/svg" viewBox="0 0 448 512"><path fill="#4285F4" d="M128 96c0-17.7 14.3-32 32-32h256c17.7 0 32 14.3 32 32s-14.3 32-32 32H160c-17.7 0-32-14.3-32-32zm0 160c0-17.7 14.3-32 32-32h256c17.7 0 32 14.3 32 32s-14.3 32-32 32H160c-17.7 0-32-14.3-32-32zm32 128c-17.7 0-32 14.3-32 32s14.3 32 32 32h256c17.7 0 32-14.3 32-32s-14.3-32-32-32H160zm-99.3-7.3c12.5 12.5 32.8 12.5 45.3 0l80-80c12.5-12.5 12.5-32.8 0-45.3s-32.8-12.5-45.3 0L80 274.7l-18.7-18.7c-12.5-12.5-32.8-12.5-45.3 0s-12.5 32.8 0 45.3l40 40zm0-160c12.5 12.5 32.8 12.5 45.3 0l40-40c12.5-12.5 12.5-32.8 0-45.3s-32.8-12.5-45.3 0L80 114.7 61.3 96c-12.5-12.5-32.8-12.5-45.3 0s-12.5 32.8 0 45.3l40 40zm0 320c12.5 12.5 32.8 12.5 45.3 0l40-40c12.5-12.5 12.5-32.8 0-45.3s-32.8-12.5-45.3 0L80 434.7l-18.7-18.7c-12.5-12.5-32.8-12.5-45.3 0s-12.5 32.8 0 45.3l40 40z"/></svg> 