<svg version="1.1" xmlns="http://www.w3.org/2000/svg" style="display: block;" viewBox="5.556466102600098 4.257660865783691 1440.7161865234375 1629.0667724609375" width="363" height="410">
<path transform="translate(0,0)" fill="rgb(26,39,51)" d="M 1048.85 13.3821 C 1076.89 0.391201 1109.44 2.27004 1137.87 12.7446 C 1170.54 24.8852 1197.11 49.4328 1211.79 81.0517 C 1217.17 92.8491 1220.04 105.473 1221.12 118.362 C 1222.5 127.299 1223.3 136.626 1223.09 145.678 C 1285.5 143.146 1338.8 147.081 1387.2 191.517 C 1421.78 223.265 1443.83 268.875 1445.65 315.981 C 1446.79 345.445 1446.02 375.185 1446 404.676 L 1445.93 561.01 L 1445.7 1042.3 L 1445.75 1324.78 L 1445.88 1410.46 C 1445.94 1429.8 1446.75 1449.48 1444.82 1468.73 C 1440.49 1515.27 1418.56 1559.91 1382.41 1589.9 C 1359.47 1608.93 1328.95 1624.95 1299.3 1629.56 C 1262.05 1635.36 1222.3 1632.74 1184.66 1632.7 L 1008.36 1632.67 L 443.725 1632.75 L 256.14 1632.68 L 202.191 1632.54 C 192.926 1632.45 183.293 1631.7 174.064 1632.16 C 157.123 1630.26 141.882 1627.64 125.714 1622.25 C 76.3206 1605.79 42.6426 1568.43 19.8232 1522.99 C 15.7977 1513.37 13.4105 1502.98 10.6544 1492.94 C 3.07259 1456.99 6.19625 1408.84 6.18225 1371.53 L 6.18959 1185.78 L 6.2053 609.658 L 6.11346 417.159 C 6.08926 384.572 7.02407 351.783 5.95002 319.23 C 8.25915 279.245 18.7102 245.538 42.1493 212.906 C 47.2109 207.373 51.4716 201.302 56.7513 195.879 C 85.1368 166.723 125.062 149.279 165.409 145.902 C 186.004 144.178 207.316 145.226 228.016 144.943 C 227.517 118.627 231.456 94.8593 243.789 71.3637 C 257.539 45.1697 282.4 22.1491 310.896 13.3498 C 342.591 0.491598 375.488 2.19 406.739 15.2529 C 436.43 27.6642 463.294 53.9955 475.329 83.8936 C 483.116 103.238 487.757 125.162 485.728 146.031 C 504.925 144.584 524.875 145.657 544.162 145.672 L 652.908 145.738 L 965.623 145.784 C 966.004 121.437 968.914 96.2825 980.065 74.2822 C 994.552 45.698 1018.2 23.4214 1048.85 13.3821 z"/>
<path transform="translate(0,0)" fill="rgb(0,0,0)" d="M 5.95002 319.23 C 8.25915 279.245 18.7102 245.538 42.1493 212.906 C 42.4066 214.094 43.0229 215.776 43.0255 216.95 C 43.034 220.804 32.4021 235.858 30.0457 240.123 C 24.909 249.419 20.1694 258.922 16.9717 269.083 C 11.9239 285.122 12.0263 302.879 11.4931 319.59 C 10.5167 350.192 11.4035 381.077 11.4385 411.706 L 11.6116 585.81 L 11.5715 1102.19 L 11.6333 1358.92 L 11.6548 1425.45 C 11.629 1447.1 10.6026 1469.14 15.102 1490.45 C 24.3594 1534.3 51.7516 1575.23 89.6074 1599.6 C 118.605 1618.26 148.236 1625.63 182.338 1628.53 C 211.367 1631.01 240.764 1630.1 269.885 1630.13 L 404.926 1630.16 L 831.027 1629.96 L 1130.3 1629.99 L 1208.63 1629.99 C 1239.7 1630.02 1272.13 1630.98 1302.65 1624.38 C 1348.66 1614.23 1388.74 1586.2 1414.06 1546.47 C 1423.87 1531.1 1430.18 1515.59 1435.22 1498.12 C 1437.9 1488.83 1439.97 1477.08 1444.82 1468.73 C 1440.49 1515.27 1418.56 1559.91 1382.41 1589.9 C 1359.47 1608.93 1328.95 1624.95 1299.3 1629.56 C 1262.05 1635.36 1222.3 1632.74 1184.66 1632.7 L 1008.36 1632.67 L 443.725 1632.75 L 256.14 1632.68 L 202.191 1632.54 C 192.926 1632.45 183.293 1631.7 174.064 1632.16 C 157.123 1630.26 141.882 1627.64 125.714 1622.25 C 76.3206 1605.79 42.6426 1568.43 19.8232 1522.99 C 15.7977 1513.37 13.4105 1502.98 10.6544 1492.94 C 3.07259 1456.99 6.19625 1408.84 6.18225 1371.53 L 6.18959 1185.78 L 6.2053 609.658 L 6.11346 417.159 C 6.08926 384.572 7.02407 351.783 5.95002 319.23 z"/>
<path transform="translate(0,0)" fill="rgb(0,0,0)" d="M 310.896 13.3498 C 342.591 0.491598 375.488 2.19 406.739 15.2529 C 436.43 27.6642 463.294 53.9955 475.329 83.8936 C 483.116 103.238 487.757 125.162 485.728 146.031 C 484.952 145.78 485.337 145.983 484.543 145.169 C 482.214 142.781 476.847 101.622 474.041 93.0783 C 466.886 71.2942 452.605 51.5548 434.893 37.0789 C 395.19 4.6296 358.17 8.6217 310.896 13.3498 z"/>
<path transform="translate(0,0)" fill="rgb(0,0,0)" d="M 1048.85 13.3821 C 1076.89 0.391201 1109.44 2.27004 1137.87 12.7446 C 1170.54 24.8852 1197.11 49.4328 1211.79 81.0517 C 1217.17 92.8491 1220.04 105.473 1221.12 118.362 C 1217.46 112.093 1215.53 102.478 1212.9 95.4039 C 1204.19 71.3604 1189.06 50.1623 1169.16 34.1123 C 1131.59 4.09408 1093.25 8.39777 1048.85 13.3821 z"/>
<path transform="translate(0,0)" fill="rgb(251,243,226)" d="M 867.924 638.032 C 877.403 623.004 887.814 610.449 904.43 602.992 C 933.393 590.024 966.347 589.212 995.913 600.738 C 1029.49 613.585 1056.61 646.345 1071.01 678.601 C 1087.89 716.406 1095.44 766.469 1084.6 806.972 C 1080.89 820.827 1074.19 834.767 1069.02 848.19 C 1085.05 835.38 1098.36 821.827 1108.2 803.582 C 1134.28 755.253 1130.29 689.065 1115.21 638.044 L 1286.06 638.32 C 1315.33 638.402 1345.6 640.346 1374.72 638.124 C 1373.2 660.213 1374.32 683.097 1374.32 705.268 L 1374.35 830.408 L 1374.33 988.678 C 1374.33 1020.9 1373.59 1053.32 1375.11 1085.51 C 1356.23 1066.89 1338.27 1046.46 1318.69 1028.71 C 1304.44 1015.8 1283.15 1006.05 1263.59 1007.14 C 1250.1 1007.95 1237.12 1012.6 1226.18 1020.54 C 1206.92 1034.55 1180.38 1065.8 1162.46 1083.74 C 1112.34 1133.91 1060.79 1183.17 1013.28 1235.82 C 984.699 1236.59 955.977 1236.04 927.384 1236.04 L 773.004 1236.02 L 609.56 1235.97 C 585.771 1235.97 548.988 1233.57 526.963 1237.73 C 516.563 1239.7 506.67 1245.37 499.241 1252.84 C 491.419 1260.7 487.383 1269.29 485.559 1280.17 C 481.612 1303.71 484.057 1345.61 484.058 1370.93 L 483.964 1560.54 C 456.285 1559.56 428.417 1560.16 400.721 1560.17 L 256.921 1560.18 C 229.515 1560.18 182.458 1562.78 157.035 1557.02 C 139.903 1553.14 120.673 1541.06 108.394 1528.81 C 93.4561 1513.9 80.8832 1491.19 77.8362 1470.03 C 74.8796 1449.5 76.9341 1412.4 76.9447 1390.32 L 77.0068 1222.04 L 76.9302 638.074 L 334.647 638.038 C 325.779 667.904 321.395 700.998 323.988 732.107 C 326.833 766.232 337.206 799.744 360.813 825.372 C 367.454 832.581 375.199 838.804 382.663 845.131 C 373.813 829.88 364.453 812.599 362.157 794.926 C 355.314 742.231 366.997 684.246 400.034 641.933 C 421.488 614.454 448.138 597.68 483.091 593.383 C 493.153 592.265 503.321 592.512 513.318 594.116 C 543.604 599.187 564.032 613.376 581.548 637.94 L 763.386 637.601 C 798.233 637.416 833.08 637.56 867.924 638.032 z"/>
<path transform="translate(0,0)" fill="rgb(26,39,51)" d="M 526.564 917.375 C 548.356 916.542 555.77 925.178 573.399 935.487 C 581.335 940.128 589.72 943.409 598.45 946.19 C 639.695 959.329 678.336 963.847 721.607 964.025 C 758.573 964.178 797.934 962.02 833.557 951.473 C 845.915 947.813 858.567 943.877 870.25 938.375 C 887.563 930.222 897.616 916.731 918.303 917.14 C 931.262 917.397 942.283 921.662 951.28 931.187 C 965.629 946.378 968.48 967.856 967.887 987.843 C 956.851 989.331 945.367 988.691 934.245 988.577 C 928.09 1030.26 914.051 1065.44 890.196 1100.24 L 889.564 1101.14 C 862.486 1139.46 819.744 1168.36 773.315 1176.31 C 716.056 1186.1 652.067 1181.35 603.532 1146.85 C 561.217 1116.77 532.497 1067.97 519.541 1018.26 C 516.964 1008.37 515.488 998.072 513.786 987.996 C 507.915 988.263 486.317 990.762 482.422 987.479 C 480.688 986.018 480.075 983.798 479.787 981.622 C 477.909 967.397 485.371 946.287 494.348 935.215 C 502.627 925.004 513.482 918.633 526.564 917.375 z"/>
<path transform="translate(0,0)" fill="rgb(251,243,226)" d="M 588.684 996.516 C 600.772 998.496 612.636 1001.68 624.814 1003.5 C 705.335 1015.57 780.474 1015.15 860.109 996.22 C 856.632 1010.66 849.785 1020.95 839.698 1031.74 C 824.83 1045.26 806.848 1054.89 787.355 1059.77 C 738.329 1072.44 671.881 1072.55 627.35 1045.87 C 608.148 1034.37 594.233 1018.43 588.684 996.516 z"/>
<path transform="translate(0,0)" fill="rgb(122,67,37)" d="M 712.63 1103.44 C 746.012 1101.79 777.881 1105.7 809.795 1115.17 C 787.748 1132.56 763.82 1140.65 736.25 1143.91 C 697.685 1145.69 667.455 1136.55 635.119 1115.57 C 661.275 1107.05 685.269 1104.77 712.63 1103.44 z"/>
<path transform="translate(0,0)" fill="rgb(229,72,63)" d="M 384.142 1321.26 C 395.36 1325.61 410.964 1334.55 416.381 1345.99 C 419.067 1351.66 419.082 1357.85 416.829 1363.64 C 411.439 1377.49 370.991 1412.39 358.356 1425.92 C 361.136 1437.98 360.115 1491.34 358.641 1505.07 C 357.658 1514.22 355.161 1520.34 347.746 1526.12 C 345.555 1527.83 343.129 1529.22 340.404 1529.83 C 323.418 1533.69 234.477 1533.13 216.543 1530.5 C 209.748 1529.51 203.586 1525.41 199.531 1519.88 C 196.178 1515.31 194.863 1509.22 194.115 1503.7 C 192.225 1489.76 191.672 1438.92 193.836 1424.79 C 188.491 1418.18 181.77 1410.95 181.92 1401.91 C 182.073 1392.67 188.029 1384.3 194.59 1378.28 C 201.546 1371.89 209.054 1367.88 218.658 1368.31 C 233.29 1365.31 317.227 1364.35 330.442 1367.88 C 345.401 1353.45 364.592 1327.65 384.142 1321.26 z"/>
<path transform="translate(0,0)" fill="rgb(203,192,177)" d="M 193.836 1424.79 L 194.919 1425.61 C 213.427 1439.75 230.212 1457.78 247.154 1473.82 C 253.915 1480.22 260.827 1487.9 268.782 1492.75 C 272.044 1494.73 275.834 1496.01 279.688 1495.59 C 294.936 1493.89 342.624 1439 358.356 1425.92 C 361.136 1437.98 360.115 1491.34 358.641 1505.07 C 357.658 1514.22 355.161 1520.34 347.746 1526.12 C 345.555 1527.83 343.129 1529.22 340.404 1529.83 C 323.418 1533.69 234.477 1533.13 216.543 1530.5 C 209.748 1529.51 203.586 1525.41 199.531 1519.88 C 196.178 1515.31 194.863 1509.22 194.115 1503.7 C 192.225 1489.76 191.672 1438.92 193.836 1424.79 z"/>
<path transform="translate(0,0)" fill="rgb(203,192,177)" d="M 218.658 1368.31 C 233.29 1365.31 317.227 1364.35 330.442 1367.88 C 319.356 1380.28 289.647 1412 277.136 1419.91 C 256.485 1404.93 240.902 1380.76 218.658 1368.31 z"/>
<path transform="translate(0,0)" fill="rgb(229,72,63)" d="M 327.624 1117.43 C 339.892 1105.87 367.427 1070.71 383.577 1070.63 C 394.659 1070.57 407.407 1081.63 414.363 1089.55 C 417.646 1093.28 419.032 1097.49 418.743 1102.46 C 418.457 1107.38 416.56 1112 413.875 1116.08 C 403.471 1131.89 372.675 1157 357.848 1172.45 C 360.519 1182.01 359.72 1241.38 358.153 1252.82 C 356.992 1261.31 354.681 1268.07 347.55 1273.38 C 344.472 1275.67 341.074 1276.77 337.308 1277.26 C 318.871 1279.66 298.802 1278.07 280.164 1278.06 C 259.907 1278.06 237.622 1279.89 217.664 1276.98 C 210.633 1275.95 203.852 1272.69 199.716 1266.71 C 196.111 1261.5 194.614 1254.35 193.81 1248.18 C 192.165 1235.55 191.542 1184.73 193.694 1172.44 C 193.389 1172.1 193.079 1171.77 192.777 1171.43 C 186.639 1164.52 181.475 1156.76 182.445 1147.09 C 183.396 1137.62 190.056 1128.79 197.489 1123.23 C 204.746 1117.8 211.859 1115.6 220.884 1116.86 C 231.882 1113.87 319.089 1113.78 327.624 1117.43 z"/>
<path transform="translate(0,0)" fill="rgb(203,192,177)" d="M 193.694 1172.44 L 194.626 1173.12 C 211.752 1185.72 232.322 1207.38 248.34 1222.38 C 254.219 1227.88 260.104 1234.12 266.751 1238.69 C 270.217 1241.08 274.106 1243.47 278.462 1242.85 C 294.295 1240.62 341.776 1184.93 357.848 1172.45 C 360.519 1182.01 359.72 1241.38 358.153 1252.82 C 356.992 1261.31 354.681 1268.07 347.55 1273.38 C 344.472 1275.67 341.074 1276.77 337.308 1277.26 C 318.871 1279.66 298.802 1278.07 280.164 1278.06 C 259.907 1278.06 237.622 1279.89 217.664 1276.98 C 210.633 1275.95 203.852 1272.69 199.716 1266.71 C 196.111 1261.5 194.614 1254.35 193.81 1248.18 C 192.165 1235.55 191.542 1184.73 193.694 1172.44 z"/>
<path transform="translate(0,0)" fill="rgb(203,192,177)" d="M 220.884 1116.86 C 231.882 1113.87 319.089 1113.78 327.624 1117.43 C 313.816 1132.48 292.874 1155.31 276.843 1167.17 C 256.35 1153.21 240.23 1132.5 220.884 1116.86 z"/>
<path transform="translate(0,0)" fill="rgb(26,39,51)" d="M 915.064 668.255 C 915.917 668.194 916.771 668.139 917.625 668.091 C 935.701 667.071 951.231 672.164 964.709 684.349 C 988.436 705.8 1001.49 739.485 1002.91 770.997 C 1004.19 799.245 1000.1 828.209 980.007 849.817 C 966.885 863.932 950.963 870.65 931.938 871.447 C 913.427 870.883 896.383 865.967 881.224 854.951 C 861.256 840.44 848.304 815.977 844.47 791.869 C 839.078 759.639 846.799 726.591 865.913 700.087 C 878.707 682.508 893.532 671.702 915.064 668.255 z"/>
<path transform="translate(0,0)" fill="rgb(251,243,226)" d="M 930.233 702.854 C 941.331 699.659 953.29 702.72 961.488 710.854 C 969.687 718.989 972.841 730.923 969.733 742.046 C 966.625 753.169 957.741 761.74 946.513 764.446 C 929.671 768.506 912.671 758.364 908.244 741.614 C 903.816 724.864 913.584 707.647 930.233 702.854 z"/>
<path transform="translate(0,0)" fill="rgb(26,39,51)" d="M 516.492 668.245 C 531.05 666.825 545.732 669.266 558.283 677.017 C 580.549 690.767 596.355 717.579 602.198 742.722 C 608.969 771.86 607.245 806.318 590.899 831.914 C 577.983 852.139 559.098 865.514 535.714 870.819 C 515.805 872.478 498.759 869.788 482.115 858.094 C 463.057 844.704 451.229 822.242 447.327 799.588 C 441.532 765.933 450.227 726.523 470.133 698.724 C 482.312 681.714 495.762 671.614 516.492 668.245 z"/>
<path transform="translate(0,0)" fill="rgb(251,243,226)" d="M 533.681 702.838 C 544.798 699.445 556.88 702.37 565.215 710.47 C 573.551 718.571 576.819 730.565 573.745 741.774 C 570.672 752.983 561.743 761.633 550.442 764.349 C 533.68 768.378 516.751 758.358 512.219 741.725 C 507.687 725.093 517.192 707.869 533.681 702.838 z"/>
<path transform="translate(0,0)" fill="rgb(229,72,63)" d="M 485.335 217.088 L 966.608 216.919 L 966.499 221.598 C 965.707 260.955 974.23 296.935 1002.54 326.089 C 1026.07 350.353 1058.44 364.012 1092.24 363.929 C 1127.12 364.293 1160.66 350.562 1185.28 325.85 C 1216.55 294.409 1222.2 259.628 1222.17 217.231 C 1270.84 219.223 1306.45 208.615 1345.28 247.723 C 1357.51 260.041 1367.09 275.693 1371.55 292.537 C 1376.79 312.339 1374.69 335.8 1374.69 356.228 L 1374.64 428.5 L 1374.82 568.109 L 1170.88 568.076 L 1108.37 568.203 C 1096.28 568.236 1083.77 568.921 1071.74 567.797 C 1058.96 566.603 1045.64 558.074 1033.72 553.304 C 1008.28 543.122 979.246 538.905 951.951 539.043 C 926.119 539.173 899.04 543.408 875.228 553.698 C 865.399 557.945 855.236 565.347 844.554 566.617 C 827.126 568.689 808.418 566.707 790.784 567.164 C 753.521 568.007 716.247 568.307 678.975 568.064 C 654.488 568.093 629.885 568.592 605.409 568.004 C 588.559 567.599 573.369 554.685 557.752 548.928 C 538.837 541.954 516.246 538.987 496.148 538.975 C 468.79 538.957 440.329 543.533 414.804 553.513 C 402.57 558.296 389.799 566.4 376.62 567.707 C 365.023 568.856 352.9 568.149 341.235 568.125 L 279.864 568.027 L 76.8541 568.033 L 76.7995 391.291 C 76.769 366.879 74.2652 320.989 78.5959 299.766 C 82.5009 280.774 91.6588 263.26 105.027 249.217 C 124.273 228.924 148.444 218.181 176.166 217.467 C 193.663 217.126 211.222 217.438 228.725 217.465 C 228.989 261.143 233.212 292.274 265.059 324.94 C 289.102 349.781 322.197 363.803 356.768 363.797 C 391.289 363.957 423.347 351.417 447.833 326.816 C 479.24 295.261 485.299 259.522 485.335 217.088 z"/>
<path transform="translate(0,0)" fill="rgb(26,39,51)" d="M 940.255 389.437 C 974.22 388.147 1005.81 395.273 1034.53 413.892 C 1081.9 444.61 1107.25 492.293 1118.77 546.486 C 1101.76 527.542 1084.34 510.979 1063.47 496.354 C 1017.36 464.175 956.403 452.112 901.155 460.305 C 888.498 462.181 876.319 469.353 864.004 470.522 C 860.351 470.868 856.545 469.471 853.765 467.107 C 850.258 464.125 848.762 459.667 848.435 455.19 C 847.473 442.024 854.499 428.983 863.093 419.511 C 881.918 398.761 913.246 390.92 940.255 389.437 z"/>
<path transform="translate(0,0)" fill="rgb(26,39,51)" d="M 485.63 388.413 C 502.51 386.251 523.85 387.898 540.237 392.218 C 561.598 397.848 586.01 410.153 597.303 429.973 C 602.165 438.506 605.389 451.119 602.279 460.751 C 601.418 463.418 599.944 465.826 597.773 467.625 C 593.861 470.865 588.854 471.412 583.976 470.903 C 571.322 469.581 559.066 463.929 546.431 461.877 C 498.439 454.081 444.176 458.592 400.912 482.11 C 371.05 498.77 350.55 518.412 329.87 545.54 C 338.108 509.319 353.244 475.443 377.518 447.015 C 405.533 414.205 442.101 391.934 485.63 388.413 z"/>
<path transform="translate(0,0)" fill="rgb(78,117,145)" d="M 546.229 1292.27 C 565.406 1291.29 584.694 1291.75 603.894 1291.77 L 693.118 1291.78 L 961.918 1291.94 C 953.019 1299.56 944.503 1308.89 938.626 1319.05 C 935.937 1323.7 934.245 1328.39 932.888 1333.58 C 927.798 1353.05 897.094 1510.57 899.653 1518.51 C 900.867 1522.28 904.271 1526.32 907.869 1528.02 C 911.74 1529.85 920.478 1527.88 924.49 1526.96 C 946.639 1521.84 968.513 1513.58 990.254 1506.89 C 1015.52 1499.12 1041.52 1492.29 1066.43 1483.53 C 1072.06 1482.02 1077.53 1479.87 1083.02 1477.9 C 1082.49 1505.33 1082.99 1532.87 1083 1560.32 C 1014.58 1559.1 945.972 1560.04 877.527 1560.04 L 540.867 1560.24 C 539.571 1544.8 540.397 1528.74 540.405 1513.24 L 540.454 1430.49 C 540.464 1414.41 538.548 1306.1 541.456 1296.63 C 542.257 1294.02 544.036 1293.44 546.229 1292.27 z"/>
<path transform="translate(0,0)" fill="rgb(251,243,226)" d="M 617.31 1349.21 C 652.389 1347.5 688.188 1348.97 723.365 1348.95 C 764.003 1348.94 805.153 1347.61 845.725 1349.09 C 849.683 1349.24 854.167 1349.33 857.883 1350.87 C 862.683 1352.86 866.678 1357.3 868.709 1362.01 C 870.748 1366.73 871.076 1372.03 868.858 1376.76 C 865.653 1383.59 860.885 1386.09 854.247 1388.68 C 829.836 1389.74 617.724 1390.71 610.823 1387.27 C 606.483 1385.11 603.005 1380.82 601.593 1376.23 C 599.917 1370.78 600.356 1363.34 603.264 1358.44 C 606.43 1353.1 611.457 1350.48 617.31 1349.21 z"/>
<path transform="translate(0,0)" fill="rgb(251,243,226)" d="M 614.946 1436.25 C 646.07 1434.75 678.022 1435.51 709.194 1436.19 C 717.413 1440.95 720.506 1445.82 723.836 1454.56 C 722.936 1457.82 721.913 1461.24 720.524 1464.33 C 718.062 1469.8 714.514 1472.16 709.119 1474.08 C 696.523 1475.43 620.239 1476.08 610.746 1472.84 C 606.556 1471.42 603.7 1467.92 602.05 1463.92 C 599.957 1458.85 599.615 1452.81 601.774 1447.72 C 604.575 1441.11 608.654 1438.78 614.946 1436.25 z"/>
<path transform="translate(0,0)" fill="rgb(251,243,226)" d="M 784.113 1436.21 C 799.767 1435.43 848.792 1433.34 860.625 1439.68 C 864.842 1441.94 868.636 1445.4 869.926 1450.15 C 871.34 1455.36 869.736 1461.41 867.041 1465.99 C 864.293 1470.65 860.359 1472.84 855.254 1474.12 C 843.522 1475.01 786.14 1476.72 777.618 1472.6 C 773.345 1470.54 770.268 1466.7 768.804 1462.22 C 767.272 1457.54 767.148 1451.08 769.684 1446.72 C 772.908 1441.17 778.148 1437.99 784.113 1436.21 z"/>
<path transform="translate(0,0)" fill="rgb(251,243,226)" d="M 1373.76 1193.94 C 1374.81 1195.32 1374.54 1196.79 1374.55 1198.48 L 1374.22 1379.33 L 1374.21 1434.31 C 1374.2 1448.86 1375.17 1465.07 1371.98 1479.31 C 1367.93 1497.45 1356.56 1515.48 1343.61 1528.57 C 1330.63 1541.76 1314.39 1551.28 1296.54 1556.18 C 1274.16 1562.13 1247.95 1560.04 1224.92 1560.06 C 1196.36 1559.98 1167.8 1560.07 1139.24 1560.33 C 1136.49 1556.67 1138.28 1454.39 1138.25 1440.16 C 1147.87 1428.95 1159.1 1418.78 1169.56 1408.36 C 1187.13 1390.89 1204.5 1373.21 1221.65 1355.33 L 1321.31 1249.96 C 1338.81 1231.28 1355.84 1212.23 1373.76 1193.94 z"/>
<path transform="translate(0,0)" fill="rgb(204,108,11)" d="M 1189.11 1143.63 C 1200.86 1156.41 1213.73 1168.28 1225.68 1180.91 C 1238.93 1193.36 1250.96 1207.12 1264.29 1219.44 C 1254.91 1229.89 1244.75 1239.61 1235.19 1249.89 C 1211 1275.92 1187.24 1302.45 1162.45 1327.9 C 1147.08 1343.68 1130.91 1358.69 1115.31 1374.25 C 1102.17 1387.35 1077.98 1414.39 1064.14 1424.27 C 1051.7 1411.71 1039.35 1399.06 1027.09 1386.33 C 1014.6 1374.44 1003.19 1361.39 990.276 1349.94 C 999.039 1342.65 1007.04 1333.29 1014.98 1325.03 L 1065.15 1272.02 C 1105.89 1228.67 1147.21 1185.87 1189.11 1143.63 z"/>
<path transform="translate(0,0)" fill="rgb(254,185,49)" d="M 1189.11 1143.63 C 1200.86 1156.41 1213.73 1168.28 1225.68 1180.91 C 1219.54 1189.41 1210.76 1197.13 1203.49 1204.71 L 1156.32 1253.84 C 1125.7 1285.89 1094.91 1317.76 1063.94 1349.46 C 1053.11 1360.5 1039.03 1377.3 1027.09 1386.33 C 1014.6 1374.44 1003.19 1361.39 990.276 1349.94 C 999.039 1342.65 1007.04 1333.29 1014.98 1325.03 L 1065.15 1272.02 C 1105.89 1228.67 1147.21 1185.87 1189.11 1143.63 z"/>
<path transform="translate(0,0)" fill="rgb(122,67,37)" d="M 349.073 77.2161 C 362.66 76.3611 374.968 77.9756 387.041 84.6994 C 399.619 91.7294 408.889 103.469 412.81 117.334 C 414.06 121.77 414.675 126.323 414.944 130.917 C 416.095 150.622 414.889 170.874 414.945 190.644 C 414.996 208.701 416.803 228.356 414.58 246.258 C 413.846 252.59 411.856 258.713 408.728 264.267 C 399.236 280.985 384.593 288.299 366.78 293.178 C 352.791 295.567 335.955 292.591 323.979 284.85 C 311.998 277.106 302.989 264.214 300.275 250.176 C 296.632 231.331 299.075 202.846 299.072 182.965 C 299.068 163.469 297.191 142.313 299.901 123.068 C 300.931 115.749 303.152 108.798 307.33 102.652 C 316.704 88.8628 333.012 80.2806 349.073 77.2161 z"/>
<path transform="translate(0,0)" fill="rgb(122,67,37)" d="M 1086.09 77.176 C 1099.89 76.0684 1113.2 78.4516 1125.27 85.4408 C 1137.84 92.6133 1146.97 104.562 1150.59 118.569 C 1153.91 131.626 1153.89 230.86 1152.11 245.253 C 1151.22 252.432 1149.14 259.509 1145.42 265.747 C 1136.51 280.715 1122.18 288.494 1105.78 292.663 C 1091.21 295.883 1075.95 293.392 1063.16 285.701 C 1051.01 278.342 1041.43 266.186 1038.18 252.248 C 1035.96 242.697 1035.61 138.887 1037.54 124.85 C 1038.65 116.764 1041.32 108.79 1045.79 101.928 C 1054.78 88.1473 1070.41 80.4019 1086.09 77.176 z"/>
<path transform="translate(0,0)" fill="rgb(251,243,226)" d="M 990.276 1349.94 C 1003.19 1361.39 1014.6 1374.44 1027.09 1386.33 C 1039.35 1399.06 1051.7 1411.71 1064.14 1424.27 C 1052.9 1433.31 1006.62 1449.08 991.592 1451.54 C 985.608 1452.52 980.293 1451.32 975.383 1447.72 C 971.197 1444.66 967.761 1440.04 967.124 1434.78 C 965.806 1423.89 976.837 1375.68 981.18 1364.65 C 983.414 1358.98 986.437 1354.64 990.276 1349.94 z"/>
<path transform="translate(0,0)" fill="rgb(229,72,63)" d="M 1264.47 1071.21 C 1269.3 1070.83 1273.3 1071.31 1277.51 1073.84 C 1288.42 1080.4 1327.48 1117.66 1330.21 1129.2 C 1332.13 1137.29 1330.9 1145.17 1326.37 1152.14 C 1323.19 1157.03 1309.73 1172.97 1305.07 1173.99 L 1303.29 1172.1 L 1231.43 1100.07 C 1240.73 1087.67 1249.41 1076.49 1264.47 1071.21 z"/>
</svg>